<?xml version="1.0" standalone="no"?>
<!DOCTYPE svg PUBLIC "-//W3C//DTD SVG 20010904//EN"
 "http://www.w3.org/TR/2001/REC-SVG-20010904/DTD/svg10.dtd">
<svg version="1.0" xmlns="http://www.w3.org/2000/svg"
 width="512.000000pt" height="512.000000pt" viewBox="0 0 512.000000 512.000000"
 preserveAspectRatio="xMidYMid meet">

<g transform="translate(0.000000,512.000000) scale(0.100000,-0.100000)"
fill="#000000" stroke="none">
<path d="M0 2560 l0 -2560 2560 0 2560 0 0 191 c0 178 -1 191 -18 186 -9 -4
-37 -11 -62 -18 -45 -12 -62 -17 -112 -37 -19 -8 -45 -8 -80 -2 -29 4 -74 11
-101 15 -26 3 -45 10 -42 14 4 7 -47 35 -65 36 -6 0 -107 102 -137 138 -24 28
-57 89 -93 172 -12 28 -34 68 -49 90 -73 110 -99 256 -66 382 35 135 50 173
101 263 130 228 256 507 299 665 26 93 72 244 115 375 10 30 54 134 98 231 88
194 165 382 193 474 18 57 19 114 19 1003 l0 942 -2560 0 -2560 0 0 -2560z
m3005 1511 c248 -33 449 -90 572 -162 86 -51 211 -180 250 -260 64 -130 78
-203 78 -404 0 -215 -15 -292 -81 -425 -95 -190 -270 -311 -536 -372 -54 -12
-98 -25 -98 -29 0 -9 181 -345 372 -691 l119 -217 -41 -62 c-94 -137 -162
-320 -178 -474 l-7 -70 -74 -8 c-41 -4 -79 -6 -86 -4 -6 3 -211 338 -455 746
l-443 741 -109 0 -109 0 3 -567 3 -568 23 -42 c35 -66 100 -98 224 -110 53 -4
71 -10 79 -24 11 -21 10 -151 -1 -168 -4 -8 -211 -10 -716 -9 l-709 3 -3 89
c-3 99 1 106 56 106 18 0 65 7 104 16 56 13 80 24 110 53 72 68 69 8 66 1362
l-3 1204 -25 50 c-32 64 -83 91 -200 106 -47 6 -91 13 -97 15 -14 4 -19 175
-6 188 13 13 1816 0 1918 -13z"/>
<path d="M2652 3218 c-248 -276 -451 -502 -449 -504 1 -1 31 11 65 27 131 63
382 111 691 132 231 16 220 1 186 232 -35 235 -51 474 -38 553 5 34 7 62 4 62
-3 -1 -210 -226 -459 -502z"/>
</g>
</svg>
